<?xml version="1.0" encoding="utf-8"?>
<!-- Generator: Adobe Illustrator 16.0.0, SVG Export Plug-In . SVG Version: 6.00 Build 0)  -->
<!DOCTYPE svg PUBLIC "-//W3C//DTD SVG 1.1//EN" "http://www.w3.org/Graphics/SVG/1.1/DTD/svg11.dtd">
<svg version="1.1" id="Layer_1" xmlns="http://www.w3.org/2000/svg" xmlns:xlink="http://www.w3.org/1999/xlink" x="0px" y="0px"
	 width="612px" height="792px" viewBox="0 0 612 792" enable-background="new 0 0 612 792" xml:space="preserve">
<g>
	<g>
		<path d="M537.163,394.049c-2.327,11.064-5.949,27.69-16.074,47.352c-7.26,12.743-13.992,19.117-20.192,19.117l-4.812,1.582v-0.509
			l-5.821,1.078c-7.725-1.941-14.432-5.848-20.129-11.713c-5.993-5.611-11.341-11.994-16.045-19.145
			c-4.707-7.153-10.646-11.408-17.82-12.756h-0.503c0-0.971-1.246-1.667-3.737-2.089c-6.964,0-13.86,1.581-20.697,4.747
			c-1.142,1.433-3.083,2.151-5.823,2.151l-1.58,1.582l0.505,0.509c-4.471,2.573-9.957,7.361-16.459,14.369v-1.077
			c10.294-15.909,27.809-23.863,52.538-23.863c9.452,0.34,18.728,7.625,27.817,21.87c9.097,14.243,14.635,21.469,16.617,21.684
			l4.241,1.07h5.887c5.147-3.755,9.388-8.355,12.727-13.798c8.562-12.658,15.506-25.024,20.821-37.094l1.233-3.424"/>
	</g>
	<g>
		<path d="M28.573,367.634c0.188,15.221,4.093,28.499,19.419,35.312c8.989,3.993,18.47,3.169,27.708,1.204
			c14.185-3.018,27.199-8.74,38.157-18.56c1.348-1.21,2.757-2.407,4.313-3.305c0.636-0.369,1.738,0.066,2.631,0.135
			c-0.226,0.858-0.165,2.131-0.717,2.518c-20.006,13.872-40.016,27.613-66.371,24.591c-17.888-2.055-31.152-15.914-31.871-33.905
			c-1.016-25.357,9.644-46.087,26.237-64.081c23.276-25.238,52.511-36.043,86.611-33.786c2.091,0.136,4.06,2.145,6.084,3.281
			c-2.293,1.514-4.569,4.274-6.879,4.301c-5.884,0.061-11.766-1.458-17.678-1.711c-30.521-1.322-53.507,12.355-71.176,36.301
			C34.586,334.088,28.478,349.784,28.573,367.634z"/>
		<path d="M534.256,380.803c-0.683-0.293-1.366-0.585-2.049-0.879c-3.919,4.522-7.644,9.234-11.811,13.519
			c-4.06,4.163-8.251,8.344-12.982,11.668c-4.482,3.15-8.896,1.147-7.814-3.324c3.561-14.718,8.112-29.193,12.332-43.747
			c0.05-0.177,0.792-0.154,1.998-0.357c-3.088,13.979-9.114,27.24-7.449,42.554c1.896-0.879,3.433-1.218,4.463-2.131
			c11.815-10.546,22.862-21.71,28.635-36.954c0.393-1.04,0.763-2.432,1.576-2.9c2.112-1.219,4.47-2.015,6.726-2.98
			c0.136,2,0.893,4.211,0.304,5.973c-9.163,27.436-14.083,43.612-23.252,71.043"/>
		<path d="M372.423,396.571c4.796-8.251,9.586-16.505,14.397-24.745c1.475-2.52,2.68-5.305,4.619-7.397
			c1.645-1.771,4.178-2.718,6.314-4.027c0.9,2.156,2.374,4.252,2.606,6.482c1.064,10.21,1.786,20.458,2.769,32.362
			c7.727-12.447,14.37-23.562,21.486-34.36c2.051-3.108,3.658-10.225,8.524-6.812c4.438,3.109-1.649,6.745-3.71,9.706
			c-7.831,11.24-15.928,22.294-23.946,33.401c-1.292,1.778-2.702,3.471-5.528,7.078c-2.711-12.528-5.023-23.217-7.668-35.452
			c-7.987,11.998-15.11,22.701-22.955,34.488c-2.837-12.298-5.367-23.342-7.946-34.375c-0.717-3.05-2.365-6.117-2.157-9.075
			c0.184-2.549,1.829-6.24,3.849-7.142c4.025-1.802,5.569,1.898,5.853,5.173c0.792,9.187,1.24,18.403,1.82,27.605
			c0.146,2.313,0.269,4.626,0.399,6.94C371.576,396.47,371.999,396.522,372.423,396.571z"/>
		<path d="M286.032,384.704c-4.491,9.163-10.656,17.013-19.944,21.064c-3.861,1.685-10.287,2.348-13.09,0.229
			c-2.748-2.076-4.174-8.813-3.06-12.585c4.822-16.312,10.793-32.287,16.327-48.394c0.773-2.249,1.426-4.535,2.459-7.846
			c-19.792,3.946-19.792,7.052-26.521,3.17c4.401-7.244,4.499-4.736,4.397-5.696c2.587-1.033,7.248-1.294,10.589-1.546
			c13.26-1.003,13.38,0.397,17.857-12.454c2.208-6.352,3.86-12.896,6.124-19.221c0.608-1.691,2.544-2.911,3.87-4.344
			c0.016,1.958,0.566,4.105-0.037,5.847c-3.433,9.902-4.766,17.611-8.9,28.871c9.721-1.188,17.873-3.13,35.711-1.554
			c4.142,0.519,8.8,1.812,8.8,1.812c-5.595-0.039-14.58,0.126-21.12,0.998c-3.881,0.517-7.608,0.339-13.457,1.551
			c-7.925,1.645-11.346-1.291-17.981,18.982c-3.276,10.007-5.766,20.27-8.589,30.424c-0.36,1.298-1.018,2.711-0.793,3.935
			c0.661,3.593,0.646,8.731,2.893,10.195c2.093,1.362,7.243-0.425,10.173-2.236C276.858,392.743,281.304,388.496,286.032,384.704z"
			/>
		<path d="M184.334,395.802c-3.67,3.071-7.054,6.603-11.076,9.104c-5.983,3.715-10.504,0.996-10.756-6.226
			c-0.13-3.742,0.469-7.512,0.794-12.017c-2.817,3.284-4.992,6.469-7.797,8.934c-4,3.511-8.115,7.183-12.809,9.526
			c-6.203,3.102-9.936,0.462-10.352-6.486c-0.878-14.677,5.685-25.539,17.746-33.312c8.355-5.386,17.71-7.281,27.764-6.303
			c-2.188,0.438-4.371,0.896-6.561,1.311c-10.689,2.015-20.651,6.1-26.953,15.08c-3.494,4.985-5.121,11.716-6.094,17.892
			c-0.825,5.23,2.706,7.044,7.115,3.656c4.545-3.493,8.559-7.915,12.026-12.521c4.314-5.721,7.525-12.272,11.843-17.988
			c1.507-1.994,4.893-2.573,7.421-3.8c0.396,2.558,1.755,5.438,1.018,7.61c-2.514,7.401-6.059,14.454-8.579,21.854
			c-0.898,2.647,0,5.907,0.079,8.886c2.829-0.783,5.768-1.3,8.447-2.437c2.108-0.896,3.896-2.558,5.827-3.881
			C183.737,395.061,184.035,395.433,184.334,395.802z"/>
		<path d="M349.477,395.901c-3.761,3.062-7.236,6.588-11.341,9.081c-5.774,3.506-10.025,0.951-10.586-5.844
			c-0.162-2.012-0.116-4.063,0.076-6.076c0.168-1.755,0.678-3.478,1.454-7.27c-3.373,3.937-5.298,6.743-7.774,8.94
			c-4.153,3.687-8.27,7.715-13.103,10.265c-6.475,3.416-10.289,0.685-10.826-6.572c-1.37-18.594,13.393-35.972,33.519-39.321
			c3.954-0.659,7.977-0.909,12.181-0.169c-4.042,0.911-8.501,1.039-12.052,2.892c-7.436,3.879-14.902,8.041-21.395,13.276
			c-5.435,4.378-7.021,11.248-6.591,18.387c0.323,5.394,3.101,6.389,7.056,3.763c3.312-2.194,6.539-4.929,8.865-8.108
			c5.037-6.871,9.49-14.173,14.148-21.324c2.087-3.209,4.272-7.604,8.575-4.716c1.565,1.053,1.317,6.403,0.369,9.292
			c-2.094,6.354-5.579,12.255-7.644,18.618c-0.991,3.048-0.051,6.727,0.016,10.121c3.014-0.991,6.113-1.787,9.015-3.045
			c1.802-0.779,3.298-2.253,4.928-3.416C348.732,395.084,349.105,395.491,349.477,395.901z"/>
		<path d="M490.222,395.947c-3.942,3.115-7.604,6.713-11.897,9.227c-5.266,3.089-9.252,0.76-10.002-5.256
			c-0.276-2.215-0.161-4.509,0.024-6.747c0.152-1.907,0.658-3.788,1.269-7.079c-3.254,3.759-5.354,6.686-7.95,9.075
			c-3.775,3.466-7.536,7.235-11.977,9.627c-7.046,3.797-11.243,0.991-11.576-6.936c-0.608-14.439,6.045-25.019,17.863-32.585
			c8.354-5.348,17.69-7.362,27.736-6.361c-3.98,0.908-8.357,1.059-11.857,2.885c-7.434,3.881-14.927,7.997-21.423,13.226
			c-5.658,4.554-7.188,11.665-6.645,19.031c0.344,4.65,3.174,5.611,6.383,3.625c3.555-2.197,6.972-5.111,9.436-8.456
			c5.321-7.224,9.729-15.12,15.097-22.302c1.615-2.155,5.176-2.852,7.841-4.218c0.269,2.782,1.437,5.862,0.628,8.282
			c-2.41,7.197-5.896,14.036-8.312,21.234c-0.883,2.632,0.077,5.882,0.199,8.847c2.825-0.825,5.762-1.397,8.442-2.566
			c2.013-0.876,3.701-2.52,5.537-3.82C489.427,395.102,489.825,395.523,490.222,395.947z"/>
		<path d="M237.655,390.065c-4.739,1.38-9.878,2.028-14.105,4.344c-4.18,2.291-7.023,7.032-11.212,9.293
			c-4.196,2.266-9.285,3.509-14.072,3.809c-2.713,0.17-5.601-2.451-8.409-3.813c2.107-2.313,3.793-5.72,6.405-6.728
			c6.231-2.402,12.896-3.679,19.388-5.388c1.052-0.28,2.128-0.456,4.421-0.934c-2.528-5.747-4.726-11.062-7.179-16.256
			c-3.61-7.641-0.215-17.989,7.536-21.001c1.936-0.751,4.684,0.597,7.06,0.98c-0.561,2.17-0.42,5.45-1.8,6.319
			c-7.681,4.848-7.053,10.197-2.691,17.02c2.074,3.24,2.456,7.561,3.793,12.032c3.067-0.273,6.746-0.605,10.426-0.935
			C237.366,389.228,237.513,389.646,237.655,390.065z M217.645,393.423c-6.728,1.924-12.737,3.457-18.586,5.455
			c-1.276,0.439-1.989,2.532-2.961,3.862c1.369,0.814,2.678,2.187,4.121,2.345C206.862,405.815,214.062,401.178,217.645,393.423z"/>
		<path d="M588.238,389.879c3.391-0.36,6.927-0.743,10.714-1.147c-0.315,0.904-0.421,1.595-0.579,1.608
			c-8.641,0.653-14.527,5.757-21.062,10.963c-4.99,3.977-12.699,4.886-19.39,6.189c-1.943,0.378-4.541-2.589-6.839-4.022
			c1.571-2.019,2.753-5.126,4.788-5.86c7.759-2.794,15.798-4.822,25.095-7.536c-2.104-4.919-4.14-10.206-6.588-15.293
			c-3.765-7.825-0.843-17.747,6.965-21.164c1.971-0.864,4.783,0.196,7.211,0.372c-0.547,2.349-0.317,5.894-1.772,6.841
			c-7.273,4.737-6.938,9.822-2.724,16.501C586.229,380.772,586.764,385.249,588.238,389.879z M578.084,393.625
			c-5.956,1.722-11.972,3.275-17.823,5.301c-1.26,0.433-1.932,2.559-2.876,3.908c1.396,0.784,2.808,2.251,4.193,2.238
			C569.043,405.011,574.77,401.678,578.084,393.625z"/>
	</g>
</g>
</svg>
