<?xml version="1.0" encoding="utf-8"?>
<!-- Generator: Adobe Illustrator 16.0.0, SVG Export Plug-In . SVG Version: 6.00 Build 0)  -->
<!DOCTYPE svg PUBLIC "-//W3C//DTD SVG 1.1//EN" "http://www.w3.org/Graphics/SVG/1.1/DTD/svg11.dtd">
<svg version="1.1" id="Layer_1" xmlns="http://www.w3.org/2000/svg" xmlns:xlink="http://www.w3.org/1999/xlink" x="0px" y="0px"
	 width="612px" height="792px" viewBox="0 0 612 792" enable-background="new 0 0 612 792" xml:space="preserve">
<g>
	<g>
		<path d="M409.198,332.545c-1.146,5.447-2.929,13.633-7.915,23.314c-3.574,6.274-6.888,9.412-9.941,9.412l-2.369,0.779v-0.25
			l-2.867,0.53c-3.802-0.956-7.105-2.879-9.91-5.767c-2.951-2.762-5.584-5.905-7.9-9.426c-2.317-3.522-5.241-5.616-8.774-6.28
			h-0.248c0-0.478-0.613-0.821-1.839-1.029c-3.429,0-6.825,0.779-10.191,2.338c-0.562,0.705-1.517,1.059-2.867,1.059l-0.778,0.779
			l0.249,0.25c-2.202,1.267-4.903,3.625-8.104,7.075v-0.53c5.069-7.833,13.692-11.749,25.867-11.749
			c4.654,0.167,9.221,3.754,13.697,10.768c4.478,7.012,7.205,10.57,8.181,10.675l2.088,0.528h2.899
			c2.534-1.849,4.622-4.114,6.265-6.794c4.216-6.232,7.635-12.321,10.252-18.263l0.608-1.686"/>
	</g>
	<g>
		<path fill-rule="evenodd" clip-rule="evenodd" d="M158.79,319.539c0.093,7.494,2.015,14.032,9.561,17.386
			c4.426,1.966,9.094,1.561,13.642,0.593c6.984-1.486,13.392-4.303,18.787-9.138c0.664-0.596,1.357-1.185,2.124-1.627
			c0.313-0.182,0.856,0.032,1.295,0.066c-0.111,0.423-0.081,1.049-0.353,1.239c-9.85,6.83-19.702,13.597-32.678,12.108
			c-8.807-1.011-15.338-7.835-15.692-16.693c-0.5-12.485,4.748-22.692,12.918-31.551c11.46-12.426,25.854-17.746,42.643-16.635
			c1.03,0.067,1.999,1.056,2.996,1.616c-1.129,0.745-2.25,2.104-3.387,2.117c-2.897,0.03-5.793-0.717-8.704-0.842
			c-15.027-0.651-26.345,6.083-35.044,17.873C161.751,303.023,158.743,310.751,158.79,319.539z"/>
		<path fill-rule="evenodd" clip-rule="evenodd" d="M407.767,326.023c-0.336-0.144-0.673-0.288-1.009-0.433
			c-1.93,2.227-3.764,4.547-5.816,6.656c-1.998,2.05-4.062,4.108-6.391,5.745c-2.207,1.551-4.38,0.565-3.848-1.637
			c1.753-7.246,3.994-14.373,6.072-21.539c0.025-0.087,0.39-0.076,0.984-0.176c-1.521,6.883-4.488,13.412-3.668,20.952
			c0.933-0.433,1.69-0.6,2.197-1.05c5.817-5.192,11.257-10.688,14.099-18.194c0.193-0.512,0.376-1.197,0.776-1.428
			c1.04-0.6,2.2-0.992,3.312-1.468c0.066,0.985,0.439,2.074,0.149,2.941c-4.512,13.508-6.934,21.473-11.448,34.979"/>
		<path fill-rule="evenodd" clip-rule="evenodd" d="M328.087,333.786c2.361-4.062,4.72-8.126,7.089-12.183
			c0.725-1.24,1.319-2.612,2.274-3.642c0.81-0.872,2.057-1.338,3.109-1.983c0.443,1.062,1.169,2.094,1.283,3.192
			c0.524,5.027,0.88,10.072,1.363,15.934c3.805-6.129,7.075-11.601,10.579-16.918c1.01-1.53,1.801-5.034,4.197-3.354
			c2.185,1.531-0.812,3.321-1.827,4.779c-3.855,5.534-7.841,10.976-11.79,16.445c-0.635,0.876-1.33,1.709-2.721,3.485
			c-1.335-6.168-2.474-11.431-3.776-17.455c-3.932,5.907-7.439,11.177-11.302,16.981c-1.397-6.055-2.642-11.493-3.913-16.925
			c-0.352-1.502-1.164-3.012-1.061-4.468c0.09-1.255,0.9-3.073,1.894-3.517c1.983-0.887,2.743,0.935,2.882,2.547
			c0.39,4.523,0.611,9.061,0.897,13.592c0.071,1.139,0.132,2.278,0.196,3.417C327.67,333.737,327.878,333.762,328.087,333.786z"/>
		<path fill-rule="evenodd" clip-rule="evenodd" d="M285.552,327.944c-2.211,4.511-5.247,8.376-9.82,10.371
			c-1.901,0.83-5.065,1.156-6.445,0.113c-1.353-1.022-2.055-4.339-1.506-6.196c2.374-8.032,5.314-15.897,8.038-23.827
			c0.38-1.107,0.702-2.233,1.211-3.863c-9.745,1.943-9.745,3.472-13.058,1.561c2.167-3.567,2.215-2.332,2.166-2.804
			c1.273-0.509,3.568-0.638,5.213-0.762c6.529-0.494,6.588,0.196,8.792-6.132c1.087-3.127,1.9-6.349,3.015-9.463
			c0.299-0.833,1.252-1.433,1.905-2.139c0.008,0.964,0.279,2.021-0.018,2.879c-1.69,4.875-2.346,8.671-4.382,14.215
			c4.786-0.585,8.8-1.541,17.583-0.765c2.039,0.255,4.333,0.892,4.333,0.892c-2.755-0.019-7.179,0.062-10.399,0.491
			c-1.911,0.255-3.746,0.167-6.626,0.764c-3.901,0.81-5.586-0.636-8.853,9.346c-1.612,4.927-2.838,9.98-4.229,14.979
			c-0.177,0.639-0.501,1.335-0.39,1.938c0.325,1.769,0.318,4.299,1.424,5.019c1.03,0.671,3.566-0.209,5.009-1.101
			C281.035,331.902,283.224,329.811,285.552,327.944z"/>
		<path fill-rule="evenodd" clip-rule="evenodd" d="M235.48,333.408c-1.807,1.512-3.473,3.251-5.453,4.482
			c-2.946,1.83-5.172,0.491-5.296-3.065c-0.064-1.842,0.231-3.698,0.391-5.916c-1.387,1.617-2.458,3.185-3.839,4.398
			c-1.969,1.729-3.995,3.537-6.306,4.691c-3.054,1.527-4.892,0.227-5.097-3.194c-0.432-7.226,2.799-12.574,8.737-16.401
			c4.114-2.652,8.72-3.585,13.67-3.103c-1.077,0.215-2.152,0.441-3.23,0.645c-5.263,0.992-10.168,3.003-13.271,7.425
			c-1.72,2.454-2.521,5.768-3,8.809c-0.406,2.575,1.332,3.468,3.503,1.8c2.238-1.72,4.214-3.897,5.921-6.164
			c2.124-2.817,3.705-6.043,5.831-8.857c0.742-0.982,2.409-1.267,3.654-1.871c0.195,1.259,0.864,2.677,0.501,3.747
			c-1.238,3.644-2.983,7.116-4.224,10.76c-0.442,1.303,0,2.908,0.039,4.375c1.393-0.386,2.84-0.64,4.159-1.2
			c1.038-0.441,1.918-1.259,2.869-1.911C235.186,333.043,235.333,333.226,235.48,333.408z"/>
		<path fill-rule="evenodd" clip-rule="evenodd" d="M316.789,333.457c-1.851,1.508-3.562,3.243-5.584,4.471
			c-2.843,1.726-4.935,0.468-5.212-2.877c-0.08-0.991-0.057-2.001,0.038-2.992c0.082-0.864,0.333-1.712,0.716-3.579
			c-1.661,1.938-2.609,3.32-3.828,4.402c-2.045,1.815-4.072,3.798-6.451,5.054c-3.188,1.682-5.066,0.337-5.33-3.236
			c-0.674-9.155,6.594-17.711,16.504-19.36c1.946-0.325,3.926-0.448,5.997-0.083c-1.991,0.448-4.186,0.511-5.934,1.423
			c-3.661,1.91-7.338,3.959-10.534,6.537c-2.676,2.155-3.457,5.538-3.245,9.053c0.159,2.655,1.526,3.145,3.474,1.852
			c1.63-1.08,3.219-2.426,4.365-3.992c2.479-3.383,4.672-6.978,6.965-10.499c1.028-1.58,2.104-3.744,4.223-2.322
			c0.771,0.518,0.649,3.153,0.182,4.575c-1.031,3.129-2.747,6.034-3.764,9.167c-0.488,1.501-0.025,3.312,0.008,4.983
			c1.483-0.488,3.01-0.88,4.438-1.499c0.887-0.383,1.623-1.109,2.426-1.682C316.423,333.054,316.606,333.255,316.789,333.457z"/>
		<path fill-rule="evenodd" clip-rule="evenodd" d="M386.086,333.48c-1.941,1.533-3.743,3.304-5.857,4.543
			c-2.593,1.52-4.556,0.373-4.925-2.588c-0.136-1.091-0.079-2.22,0.011-3.322c0.076-0.939,0.325-1.865,0.625-3.486
			c-1.602,1.851-2.635,3.292-3.915,4.468c-1.858,1.707-3.71,3.562-5.896,4.74c-3.469,1.869-5.535,0.488-5.699-3.414
			c-0.3-7.11,2.976-12.319,8.795-16.044c4.113-2.633,8.71-3.625,13.656-3.132c-1.96,0.447-4.115,0.521-5.838,1.42
			c-3.66,1.911-7.35,3.938-10.548,6.512c-2.786,2.242-3.539,5.743-3.271,9.37c0.169,2.29,1.562,2.763,3.142,1.785
			c1.75-1.082,3.433-2.517,4.646-4.164c2.62-3.556,4.79-7.444,7.433-10.98c0.795-1.061,2.548-1.404,3.861-2.076
			c0.132,1.369,0.707,2.886,0.308,4.077c-1.186,3.544-2.903,6.911-4.093,10.455c-0.434,1.296,0.039,2.896,0.099,4.356
			c1.391-0.406,2.837-0.688,4.156-1.263c0.992-0.432,1.823-1.241,2.727-1.881C385.694,333.063,385.891,333.271,386.086,333.48z"/>
		<path fill-rule="evenodd" clip-rule="evenodd" d="M261.733,330.583c-2.333,0.68-4.864,0.999-6.945,2.139
			c-2.058,1.128-3.458,3.462-5.52,4.576c-2.066,1.115-4.571,1.727-6.928,1.875c-1.336,0.084-2.758-1.207-4.141-1.878
			c1.038-1.139,1.868-2.816,3.154-3.312c3.068-1.183,6.349-1.811,9.546-2.653c0.518-0.137,1.048-0.224,2.176-0.46
			c-1.244-2.829-2.326-5.446-3.534-8.003c-1.778-3.762-0.106-8.857,3.71-10.34c0.953-0.37,2.306,0.294,3.476,0.483
			c-0.276,1.068-0.207,2.683-0.886,3.111c-3.782,2.387-3.473,5.021-1.325,8.38c1.021,1.595,1.209,3.722,1.868,5.924
			c1.51-0.135,3.321-0.298,5.133-0.46C261.591,330.171,261.663,330.377,261.733,330.583z M251.881,332.237
			c-3.312,0.947-6.271,1.702-9.151,2.686c-0.628,0.216-0.979,1.246-1.458,1.901c0.674,0.401,1.319,1.077,2.029,1.154
			C246.572,338.338,250.117,336.055,251.881,332.237z"/>
		<path fill-rule="evenodd" clip-rule="evenodd" d="M434.345,330.491c1.67-0.177,3.411-0.365,5.275-0.564
			c-0.155,0.445-0.207,0.785-0.285,0.792c-4.254,0.321-7.152,2.834-10.37,5.397c-2.457,1.958-6.253,2.406-9.547,3.047
			c-0.957,0.187-2.235-1.274-3.367-1.98c0.773-0.994,1.355-2.524,2.357-2.885c3.821-1.376,7.779-2.375,12.356-3.711
			c-1.035-2.422-2.038-5.024-3.243-7.529c-1.854-3.853-0.415-8.738,3.428-10.421c0.971-0.425,2.356,0.097,3.551,0.184
			c-0.27,1.156-0.156,2.901-0.873,3.368c-3.581,2.332-3.415,4.836-1.341,8.124C433.355,326.008,433.619,328.212,434.345,330.491z
			 M429.346,332.336c-2.933,0.848-5.895,1.613-8.776,2.61c-0.62,0.213-0.951,1.26-1.416,1.924c0.688,0.386,1.382,1.108,2.065,1.102
			C424.895,337.942,427.714,336.301,429.346,332.336z"/>
	</g>
</g>
</svg>
