<?xml version="1.0" encoding="utf-8"?>
<!-- Generator: Adobe Illustrator 16.0.0, SVG Export Plug-In . SVG Version: 6.00 Build 0)  -->
<!DOCTYPE svg PUBLIC "-//W3C//DTD SVG 1.1//EN" "http://www.w3.org/Graphics/SVG/1.1/DTD/svg11.dtd">
<svg version="1.1" id="Layer_1" xmlns="http://www.w3.org/2000/svg" xmlns:xlink="http://www.w3.org/1999/xlink" x="0px" y="0px"
	 width="612px" height="792px" viewBox="0 0 612 792" enable-background="new 0 0 612 792" xml:space="preserve">
<g>
	<path d="M121.327,418.729c0.721,0.537,0.721,1.44-0.179,2.703c-2.705,1.442-5.592,3.429-8.657,5.592
		c-18.936,13.886-36.97,20.919-54.103,20.919c-24.887,0-40.938-15.69-40.938-39.857c0-35.524,27.953-73.577,64.021-89.627
		c13.885-6.132,29.035-9.38,45.626-9.38c6.852,0,15.329,0.18,15.329,3.065c0,2.346-3.427,5.772-7.033,5.772
		c-0.362,0-0.902,0-1.445-0.178c-7.933-1.085-14.606-2.166-21.459-2.166c-22.903,0-43.823,8.476-60.956,26.69
		S24.664,380.496,24.664,404.3c0,23.806,13.165,38.954,35.167,38.954c17.494,0,34.445-6.852,48.511-16.052h-0.36
		c4.146-3.246,7.755-6.312,9.918-8.115C118.802,418.188,120.425,418.188,121.327,418.729z"/>
	<path d="M186.76,429.792c-5.559,6.255-11.583,12.279-16.681,12.279c-3.245,0-6.023-2.55-6.023-8.571
		c0-4.404,0.694-8.574,1.852-12.743c-7.877,10.655-16.681,21.082-25.254,21.082c-3.937,0-6.486-3.243-6.486-9.268
		c0-25.022,23.168-38.228,42.167-38.228c1.622,0,3.476,0,5.328,0.232l0.232,1.158h-1.391c-17.376,0-40.544,12.278-40.544,31.509
		c0,5.099,0.926,7.184,2.78,7.184c9.963,0,22.937-24.097,28.961-33.829c1.854-3.011,8.804-3.476,8.804,1.391
		c0,6.257-10.888,21.085-10.888,31.047c0,3.94,1.391,5.099,5.097,3.708c3.938-1.623,7.645-4.634,11.12-7.877L186.76,429.792z"/>
	<path d="M212.25,405.231c-0.232-3.011,0.694-6.486,2.317-9.268c2.317-4.17,6.254-7.413,10.888-7.413
		c2.317,0,3.708,2.085,3.708,3.94c0,3.011-2.549,4.631-4.866,6.486c-2.084,1.62-3.937,3.243-3.937,6.024
		c0,5.096,6.254,9.266,6.254,17.607c0,1.158-0.229,2.316-0.461,3.243l11.121-1.391c1.391,0,1.852,0.231,1.852,0.696
		c0,0.462-0.694,1.391-1.852,1.62l-12.047,1.623c-4.172,9.269-17.377,15.061-26.646,15.061c-4.401,0-7.416-2.316-7.416-4.866
		c0-5.561,11.124-9.036,28.73-11.817v-0.926c0-3.243-1.158-6.254-2.778-9.729C215.261,411.95,212.482,408.939,212.25,405.231z
		 M202.288,440.913c5.096,0,14.363-4.635,16.913-11.354c-18.071,3.012-22.244,5.561-22.244,8.342
		C197.189,439.061,197.422,440.913,202.288,440.913z"/>
	<path d="M349.179,429.792c-5.56,6.255-11.581,12.279-16.68,12.279c-3.243,0-6.025-2.55-6.025-8.571
		c0-4.404,0.697-8.574,1.855-12.743c-7.877,10.655-16.684,21.082-25.255,21.082c-3.939,0-6.486-3.243-6.486-9.268
		c0-25.022,23.167-38.228,42.168-38.228c1.62,0,3.476,0,5.328,0.232l0.231,1.158h-1.391c-17.377,0-40.547,12.278-40.547,31.509
		c0,5.099,0.929,7.184,2.781,7.184c9.962,0,22.938-24.097,28.963-33.829c1.852-3.011,8.803-3.476,8.803,1.391
		c0,6.257-10.891,21.085-10.891,31.047c0,3.94,1.391,5.099,5.099,3.708c3.939-1.623,7.645-4.634,11.12-7.877L349.179,429.792z"/>
	<path d="M367.254,396.196c1.391,11.816,1.623,22.938,2.316,34.987c0.697,3.243,0.697,3.475,2.088,0.229
		c5.328-10.194,10.888-20.155,17.146-29.886c3.011-5.099,7.877-8.342,9.265-1.855c1.391,11.354,2.317,22.477,2.781,33.829
		c0.232,2.317,0.927,1.158,1.392,0c7.877-13.208,15.521-26.413,24.096-38.924c3.243-3.015,7.413-0.927,5.328,3.704
		c-10.427,12.512-19.694,25.952-28.963,39.621c-2.778,4.635-5.096,6.022-6.486-0.696c-1.623-8.109-2.781-16.681-4.866-24.79
		c-0.462-3.476-1.62-3.011-3.011-0.232c-6.024,8.342-11.817,17.146-17.146,25.951c-3.011,5.328-3.707,5.328-4.866-0.696
		c-2.316-13.205-5.328-26.181-9.035-39.157C357.06,392.491,365.866,389.245,367.254,396.196z"/>
	<path d="M487.273,429.792c-5.561,6.255-11.586,12.279-16.685,12.279c-3.243,0-6.021-2.55-6.021-8.571
		c0-4.404,0.694-8.574,1.853-12.743c-7.877,10.655-16.681,21.082-25.255,21.082c-3.937,0-6.486-3.243-6.486-9.268
		c0-25.022,23.17-38.228,42.168-38.228c1.62,0,3.476,0,5.327,0.232l0.232,1.158h-1.391c-17.377,0-40.544,12.278-40.544,31.509
		c0,5.099,0.926,7.184,2.778,7.184c9.965,0,22.938-24.097,28.963-33.829c1.852-3.011,8.803-3.476,8.803,1.391
		c0,6.257-10.888,21.085-10.888,31.047c0,3.94,1.391,5.099,5.096,3.708c3.939-1.623,7.647-4.634,11.123-7.877L487.273,429.792z"/>
	<path d="M567.674,405.231c-0.232-3.011,0.694-6.486,2.317-9.268c2.316-4.17,6.254-7.413,10.888-7.413
		c2.317,0,3.708,2.085,3.708,3.94c0,3.011-2.55,4.631-4.866,6.486c-2.085,1.62-3.938,3.243-3.938,6.024
		c0,5.096,6.254,9.266,6.254,17.607c0,1.158-0.231,2.316-0.461,3.243l11.12-1.391c1.391,0,1.853,0.231,1.853,0.696
		c0,0.462-0.694,1.391-1.853,1.62l-12.05,1.623c-4.169,9.269-17.374,15.061-26.643,15.061c-4.401,0-7.415-2.316-7.415-4.866
		c0-5.561,11.12-9.036,28.73-11.817v-0.926c0-3.243-1.159-6.254-2.782-9.729C570.685,411.95,567.903,408.939,567.674,405.231z
		 M557.709,440.913c5.099,0,14.367-4.635,16.916-11.354c-18.074,3.012-22.244,5.561-22.244,8.342
		C552.613,439.061,552.846,440.913,557.709,440.913z"/>
	<path fill-rule="evenodd" clip-rule="evenodd" d="M286.602,420.88c-4.468,9.116-10.602,16.924-19.842,20.954
		c-3.841,1.677-10.233,2.337-13.021,0.229c-2.733-2.064-4.151-8.767-3.044-12.519c4.797-16.228,10.737-32.12,16.24-48.141
		c0.767-2.237,1.418-4.513,2.447-7.807c-19.688,3.925-19.688,7.015-26.383,3.152c4.377-7.207,4.477-4.711,4.377-5.664
		c2.573-1.03,7.21-1.29,10.532-1.54c13.193-0.997,13.313,0.396,17.767-12.391c2.196-6.317,3.837-12.828,6.091-19.12
		c0.603-1.683,2.528-2.896,3.85-4.321c0.015,1.949,0.564,4.083-0.037,5.818c-3.415,9.85-4.739,17.519-8.854,28.721
		c9.672-1.183,17.782-3.113,35.527-1.545c4.121,0.515,8.755,1.803,8.755,1.803c-5.566-0.039-14.505,0.124-21.013,0.991
		c-3.862,0.515-7.569,0.337-13.386,1.545c-7.883,1.635-11.286-1.285-17.887,18.883c-3.258,9.954-5.735,20.164-8.547,30.265
		c-0.359,1.291-1.014,2.698-0.788,3.914c0.658,3.573,0.643,8.686,2.878,10.142c2.082,1.356,7.204-0.423,10.119-2.226
		C277.476,428.878,281.898,424.653,286.602,420.88z"/>
	<path d="M516.773,459.562c10.427-29.889,6.646-19.808,12.205-45.062c-6.95,6.95-21.314,27.571-29.656,27.571
		c-2.549,0-3.939-1.158-3.939-4.401c0-5.561,2.316-13.208,3.246-16.452c0.926-3.704,2.084-7.645,3.476-11.585l4.631-14.363
		c0.929-2.778,3.708-2.778,3.014,0l-4.401,15.061c-2.317,7.645-3.015,14.596-3.243,22.241c0,2.087,0,3.246,0.926,3.246
		c0.694,0,1.62-0.232,2.546-0.93c9.501-8.109,19.695-18.071,26.646-31.044c1.392-2.781,3.012-7.88,4.17-9.5
		c2.317-4.402,10.197-5.328,7.88,1.62l-20.278,63.489"/>
	<g>
		<g id="XMLID_1_">
			<g>
				<path fill="#15616B" d="M370.978,474.869c9.901-11.462,24.992-19.433,43.143-20.885c8.171-0.648,18.489-0.046,25.286,4.341
					c9.206,5.932,20.204,30.044,32.052,38.74c-9.824-3.336-19.34-15.23-30.198-28.499c-12.419-15.184-22.073-8.99-22.073-8.99
					c-1.329-5.483-25.858,1.529-25.766,2.317c0.294,2.332-9.793,2.456-6.734,4.341c0,0-5.885,3.49-9.346,6.179
					c-3.475,2.703-9.53,8.001-9.53,8.001C367.779,476.614,368.012,478.298,370.978,474.869z"/>
				<path d="M441.26,468.566c10.858,13.269,20.374,25.163,30.198,28.499c3.259,2.395,10.581,0.139,11.168,0
					c-0.031,0.016-0.047,0.031-0.047,0.031c0.355-0.14,3.105-1.251,4.479-1.916c21.209-10.411,31.403-39.296,31.403-39.296
					l6.812-1.9c-6.271,24.715-15.432,33.071-27.897,41.613c-5.823,3.985-10.411,3.491-10.797,3.847
					c-0.386,0.34-5.638,1.298-8.341,1.312c-5.793,0.031-22.923-8.217-34.848-24.421c-13.979-18.999-24.205-16.76-24.205-16.76
					S428.841,453.383,441.26,468.566z"/>
			</g>
			<g>
			</g>
		</g>
	</g>
</g>
</svg>
